<svg width="508" height="424" viewBox="0 0 508 424" fill="none" xmlns="http://www.w3.org/2000/svg">
<path d="M465.29 423.23H42.7098C27.9828 422.695 14.5928 414.527 7.3818 401.675C0.167003 388.82 0.167003 373.14 7.3818 360.284C14.5927 347.432 27.9838 339.264 42.7098 338.725H465.29C480.017 339.264 493.407 347.432 500.618 360.284C507.833 373.139 507.833 388.819 500.618 401.675C493.407 414.527 480.016 422.695 465.29 423.23Z" fill="white"/>
<path d="M465.29 254.22H42.7098C27.9828 253.685 14.5928 245.517 7.3818 232.665C0.167003 219.81 0.167003 204.126 7.3818 191.274C14.5927 178.422 27.9838 170.254 42.7098 169.715H465.29C480.017 170.254 493.407 178.422 500.618 191.274C507.833 204.126 507.833 219.809 500.618 232.665C493.407 245.517 480.016 253.685 465.29 254.22Z" fill="white"/>
<path d="M465.29 85.16H42.7104C27.6484 85.16 13.7264 77.1209 6.19437 64.074C-1.34083 51.027 -1.34083 34.953 6.19437 21.906C13.7256 8.85898 27.6474 0.823975 42.7104 0.823975H465.29C480.352 0.823975 494.274 8.85918 501.806 21.906C509.342 34.953 509.342 51.027 501.806 64.074C494.275 77.121 480.353 85.16 465.29 85.16Z" fill="white"/>
</svg>
